<mxfile host="app.diagrams.net" modified="2024-04-19T17:32:46.006Z" agent="Mozilla/5.0 (Windows NT 10.0; Win64; x64) AppleWebKit/537.36 (KHTML, like Gecko) Chrome/123.0.0.0 Safari/537.36" version="24.2.7" etag="lHVbb-QMjntpA40SycXp" type="github">
  <diagram name="Page-1" id="5__sI0tNWNiqb6yXn0_G">
    <mxGraphModel>
      <root>
        <mxCell id="0" />
        <mxCell id="1" parent="0" />
      </root>
    </mxGraphModel>
  </diagram>
</mxfile>
